<svg width="384" height="448" viewBox="0 0 384 448" fill="none" xmlns="http://www.w3.org/2000/svg">
<path d="M384 448V297.73L354.913 290.829L282.451 258.373L270.203 245.851L221.725 232.05L210.753 233.328L185.239 223.361L224.021 219.272L270.203 218.25L258.722 211.605L234.227 207.772L192.638 192.694L162.275 191.16L130.126 182.982L87.2611 163.048L79.6067 156.404L33.9349 144.137L43.1203 139.281L155.131 120.625H242.137L300.821 102.225L383.745 56.2236V23.2561L356.954 17.1226L288.319 15.0782L215.856 34.7564L109.969 21.2116L61.7462 0L29.8525 127.781L0 193.46L93.6399 265.784L108.439 311.019L279.389 448H384Z" fill="#868686"/>
</svg>
